<svg version="1.2" xmlns="http://www.w3.org/2000/svg" viewBox="0 0 132 138" width="132" height="138">
	<title>esewa_hotel_logo_black</title>
	<style>
		.s0 { fill: #29bb00 } 
		.s1 { fill: #ffffff } 
		.s2 { fill: #1c252e } 
		.s3 { fill: #000000 } 
	</style>
	<path class="s0" d="m1 71.8c0-35.9 29.2-65 65.2-65 33.8 0 61.6 25.8 64.8 58.7h-24.8v12.6h24.8c-3.2 32.9-31 58.7-64.8 58.7-36 0-65.2-29.1-65.2-65z"/>
	<path class="s1" d="m87.7 58c1.4-0.3 2.5-0.6 3.3-1.1 0.9-0.5 1.3-1.2 1.1-2.4-0.4-2.5-1.6-5.6-3.8-9.1q-3-5.6-9.4-9.6c-4.2-2.6-9.6-3.5-16.2-2.6-4.3 0.7-8.5 1.9-12.4 3.7-4 1.9-7.5 5.1-10.7 9.3-3.8 5.3-5.9 10.8-6.5 16-0.8 5.2-0.8 9.6-0.1 13 1 5.9 2.3 10.8 3.9 14.6 1.7 3.9 4.4 7.7 8 11.4 4 4.1 8.7 6.5 13.8 7.7 5.1 0.9 10.2 1 15.2 0.2 5.1-1 9.3-2.7 12.8-5.3 3.2-2.8 5.9-5.7 7.9-9 1.8-3.3 3.1-6.2 3.7-8.7 0.2-1 0.3-1.7 0.2-2 0-0.4-0.2-0.7-0.6-0.6l-2.4-0.9c-0.4 0.1-0.5 0.1-0.9 0.3-0.3 0.3-0.4 0.5-0.5 0.8-1.1 3.2-3.1 6.3-6.4 9.1-3.2 3-7.3 4.9-12.6 5.9-7.1 1-13.4-0.9-18.8-5.7-5.3-4.8-8.8-11.4-10.4-20q-0.9-5.9-0.8-8.3zm-42.6 1.4c0.7-6.6 2.4-11.4 5.2-14.7 2.9-3.3 6.3-5.2 10-5.8 3.7-0.4 6.8 0.2 9 1.7 2.2 1.6 3.9 3.7 5 6 0.9 2.3 1.5 4.1 1.7 5.5 0.2 0.8-0.1 1.4-0.7 1.9-0.8 0.6-2 1-3.5 1.2z"/>
	<path class="s2" d="m183.6 137.1c7.4-0.2 13.6-1.9 18.8-5.5 5-3.3 8.9-8.1 11.4-13.9 2.6-5.8 4-12.2 4-19.3q0-8.7-2-14.3c-1.4-3.9-3.2-7-5.4-9.7-3-3.7-6.9-6.7-11.4-8.8q-6.8-3.2-15.6-5.8c-2.6-0.9-5.8-2.1-9.5-4.1-3.7-1.8-6.9-3.9-9.5-6.5-2.1-2.3-3.6-5-4.2-7.6-0.7-2.7-1-5.3-1-7.8 0-3.2 0.6-6.2 2-9.3 1.1-3.2 3.3-5.9 6.3-8 3.1-2.1 6.9-3.3 11.9-3.3 3.9 0 7.4 0.5 10.4 1.9 3 1.2 5.7 3 7.9 5.6 3.3 3.9 5.8 7.5 7.2 10.8 1.5 3.4 2.7 6.2 3.2 8.8q0.2 0.8 1 0.6l2-0.6c0.3 0 0.5-0.1 0.7-0.5 0.1-0.2 0.1-0.5 0.1-0.9 0-1.4-0.3-4-0.6-7.6-0.4-3.7-0.7-7.4-1.2-11.3-0.4-3.8-0.5-6.8-0.5-9.1 0-0.9-0.2-1.6-0.4-2.2-0.1-0.5-0.5-0.8-1-0.8-0.3 0-0.8 0.1-1 0.3-0.3 0.2-0.8 0.4-1.1 0.7l-2.2 2.1c-0.4 0.6-0.9 0.7-1.4 0.7-0.5 0.2-1.1-0.1-1.8-0.5-1.5-0.9-3.9-1.8-7.4-2.6-3.5-1.1-7.5-1.6-12.4-1.8-4.5 0-8.8 0.7-12.9 1.9-4 1.5-7.5 3.6-10.5 6.6-2.7 2.6-5 6-7.2 9.9-2 4-3 8.3-3.2 12.7 0 5.8 0.7 10.7 2.2 15 1.3 4.2 3.3 7.9 6.2 10.8 3.8 3.8 8.2 7 12.9 9.3 4.8 2.3 8.7 4.1 11.5 5 6.9 2.2 12.9 5.6 18 9.8 5 4.5 7.7 11.2 7.8 20-0.1 5.3-1.3 9.5-3.7 12.9-2.3 3.3-5.2 5.6-8.7 7.2-3.5 1.6-6.8 2.3-10.4 2.3-4.6 0-9.2-1.2-13.2-3.3-4.2-2.3-7.7-5.5-10.2-9.7-2.7-4.5-4.4-8.4-5-11.5q-1-4.8-1-9c0-0.6-0.2-0.9-0.4-1.1 0-0.2-0.3-0.3-0.6-0.3l-2.5-0.2c-0.4 0-0.5 0-0.9 0.2-0.2 0-0.2 0.3-0.3 0.8-0.2 2-0.5 5.2-0.9 9.6q-0.5 6.9-1 13.2c-0.5 4.4-0.8 7.4-1 9.2-0.1 1.1 0 1.8 0.4 2.1 0.1 0.5 0.6 0.7 1.1 0.7 0.5 0 1.2 0 1.5-0.3 0.6-0.2 1.1-0.9 1.6-1.8 0.5-0.9 1-1.6 1.3-2.1 0.3-0.5 0.8-0.9 1.3-0.9q0.5 0 1.5 0.5c0.5 0.2 1.4 0.9 2.4 1.6 3.3 2.8 7 5 11.4 6.7 4.3 1.6 9.4 2.5 15.2 2.5zm102.8-49.6c1.4 0 2.5-0.2 3.4-0.5 0.8-0.4 1.3-1.1 1.3-2.3 0-2.5-0.6-5.9-2.2-9.7q-2-6.1-7.5-11.2c-3.5-3.1-8.5-4.9-14.9-5.1-4.2 0-8.4 0.5-12.4 1.8-4 1.2-7.9 3.9-11.5 7.6-4.4 4.7-7.2 9.9-8.6 15-1.5 5.1-2.2 9.5-2 13 0 6 0.5 11.2 1.5 15.2 1 4.3 3 8.5 5.9 12.7 3.2 4.8 7.2 8 11.9 9.9 4.7 1.8 9.5 2.7 14.4 2.7 5-0.2 9.2-1.3 12.9-3.4 3.5-2.3 6.5-4.7 8.8-7.7 2.2-3.1 3.9-5.7 4.9-8.2 0.3-0.9 0.5-1.6 0.5-1.9 0-0.4-0.2-0.7-0.5-0.7l-2.2-1.3c-0.3 0-0.5 0-0.8 0.2-0.4 0.2-0.5 0.4-0.7 0.7-1.5 3-3.8 5.9-7.4 8.1-3.5 2.5-7.7 3.8-12.9 3.9-6.8-0.1-12.5-3-16.9-8.6-4.3-5.7-6.7-12.9-6.8-21.7q0-6.1 0.5-8.5zm-40.7-5.3c1.6-6.5 4-11.1 7.2-14 3.2-2.8 6.7-4.2 10.4-4.2 3.5 0.2 6.3 1.2 8.2 3.2 1.8 1.9 3.1 4.2 3.8 6.7 0.5 2.5 0.9 4.4 0.9 5.8 0 0.9-0.4 1.4-1.1 1.8-0.8 0.5-2 0.7-3.5 0.7zm120.3-9.9c-0.4-1.4-0.2-2.5 0.3-3.4 0.5-0.7 1.2-1.2 2-1.2h3.5c0.9 0 1.2-0.5 1.2-1.4v-3.7c0-0.4-0.2-0.7-0.3-0.9-0.2-0.2-0.7-0.3-1.2-0.3-0.7 0-2 0.1-4 0.1-2 0.2-4.9 0.4-8.7 0.4-4.2 0-7.6-0.2-10.2-0.4-2.6 0-4.2-0.1-4.9-0.1-0.5 0-0.8 0.1-1.2 0.3-0.1 0.2-0.3 0.5-0.3 1.1v3.7c0 0.9 0.3 1.2 1.2 1.2h2.5c1.1 0 2.2 0.2 2.8 0.4 0.7 0.3 1.4 0.7 1.7 1.4 0.5 0.7 0.8 1.4 1 2.3 0.2 0.9 0.3 1.9 0.5 3.3l-17.1 43.1h-0.6l-13.3-46.8c-0.5-1.6-0.5-2.8 0-3.5 0.4-0.9 1-1.2 2-1.2h1.5c0.5 0 1-0.2 1.2-0.4 0.2-0.4 0.2-0.7 0.2-1.1v-3.5c0-0.5-0.2-0.9-0.4-1-0.1-0.2-0.5-0.4-1-0.4-1.1 0-3 0.2-5.2 0.2-2.1 0.2-5.1 0.3-8.8 0.3-4.7 0-8.1-0.1-10.4-0.3-2.2 0-3.9-0.2-4.9-0.2-0.3 0-0.6 0.2-0.8 0.4-0.2 0.3-0.2 0.7-0.2 1v3.4c0 0.5 0 0.8 0.2 1.2 0.2 0.2 0.5 0.4 1 0.4h3.7q3 0 4.5 1c1.2 0.9 2 2 2.5 3.7l22 62.2c0.3 1 0.6 1.9 1.1 2.4 0.5 0.7 1 1.1 1.7 1.1 0.7 0 1.3-0.2 2-0.7q0.8-0.5 1.5-2.1l20.6-50.9h0.9l16.4 50.3c0.3 1.1 0.8 2 1.3 2.5 0.5 0.5 1 0.9 1.7 0.9 0.7 0 1.3-0.2 1.8-0.4 0.5-0.3 1-1 1.4-1.9 0.6-1.8 2.1-5.6 4.7-12.2q3.5-9.5 8-21.2c3-7.9 5.9-14.8 8.2-21 2.4-6 3.9-9.7 4.5-10.7 0.5-0.9 1.4-1.6 2.4-2.2 1-0.5 2-0.8 3-0.8h4.2c0.8 0 1.1-0.6 1.1-1.5v-3.7c0-0.3-0.1-0.7-0.3-0.8-0.2-0.2-0.5-0.4-0.8-0.4-1 0-2.4 0.2-4.2 0.2-1.9 0.2-4.5 0.3-8.1 0.3-3.5 0-6.3-0.1-8.7-0.3-2.1 0-3.6-0.2-4.1-0.2-0.4 0-0.7 0.2-0.9 0.4-0.2 0.1-0.3 0.5-0.3 0.8v3.7c0 0.4 0 0.7 0.1 1.1 0.2 0.2 0.6 0.4 0.9 0.4h2.3c1.7 0 2.9 0.8 3.4 2.4 0.5 1.8 0.1 4.1-0.9 7.3l-13.5 38.8h-0.7zm101 30.7v-27c0-2.5-0.2-4.6-0.5-6.7-0.5-2.1-1.5-4.1-3.2-5.8-1.2-1.3-2.7-2.3-4.7-3.2-1.8-1.1-4.8-1.6-8.7-1.6-3.7 0-7.2 0.5-10.4 1.4q-4.8 1.6-10 4.8c-3.5 2.1-6.2 4.8-8.4 7.8-2 3-3.2 6-3.2 8.8 0 1.9 0.4 3.5 1 4.4 0.7 0.9 1.7 1.2 3 1.2q5.1 0 7.1-2.6c1.3-1.8 1.8-4.2 1.8-7.4-0.2-1.6-0.3-3-0.5-4.4-0.2-1.5 0.3-2.7 1.4-3.7q2-1.9 5-2.7c2.1-0.7 4-1.1 5.8-1.1 2.5 0 4.6 0.4 6.2 1.1 1.7 0.7 3.1 1.6 3.9 2.8 0.8 1.3 1.5 2.9 1.7 4.6 0.3 2 0.5 3.7 0.6 5.3v11.3c-1.5 1.3-4 2.8-7.7 4.8-3.5 1.8-7.3 3.7-11.2 5.5-6.5 3-10.9 6.3-13.4 9.8-2.3 3.8-3.5 7.5-3.3 11.5 0.1 5.5 1.3 9.4 3.5 11.5q3.2 3.2 6.5 3.2c1.8 0 3.5 0 5.2-0.2 1.5 0 3.2-0.4 4.7-0.9 3.7-1.4 7-2.8 9.9-4.7 2.7-1.8 5-3.8 6.7-6.1h0.3c0.8 3.8 2.2 6.6 4.2 8.7 2.2 2.1 4.7 3.2 7.7 3.2 4.2-0.2 7.2-1.3 9.2-3.4 2-1.9 3.2-3.7 3.9-5.3 0.5-0.9 0.6-1.6 0.6-2.1 0-0.3-0.1-0.9-0.5-1.1l-1.6-1.4c-0.4-0.1-0.7-0.3-0.9-0.1-0.2 0.1-0.5 0.5-0.8 0.8-0.5 0.7-1.2 1.3-2.2 1.8-1.2 0.5-2.3 0.9-3.7 0.9-1.5 0.2-2.7-0.9-3.7-2.8-0.8-2-1.3-5.5-1.3-10.4v-10.5zm-12.2 14.3c-0.4 2.5-2 5-5.1 7.3-3.1 2.3-6 3.5-8.7 3.7-2.5 0-4.7-0.7-6.2-2.5-1.6-1.6-2.5-3.9-2.5-7.2 0.2-4.8 1.7-8.7 4.5-11.5 2.9-2.7 5.9-4.9 9.4-6.7q5.3-2.4 8.6-4.8z"/>
	<path class="s3" d="m177 157.3v29.4h-4.7v-13.2h-16.6v13.2h-4.7v-29.4h4.7v13h16.6v-13z"/>
	<path class="s3" d="m245.7 172q0 3.3-1.2 6-1.1 2.8-3.2 4.8-2 2-4.9 3.1-2.9 1.1-6.5 1.1-3.5 0-6.4-1.1-2.9-1.1-5-3.1-2-2-3.2-4.8-1.1-2.7-1.1-6 0-3.3 1.1-6 1.2-2.8 3.2-4.8 2.1-2 5-3.1 2.9-1.1 6.4-1.1 3.6 0 6.5 1.1 2.9 1.1 4.9 3.1 2.1 2 3.2 4.8 1.2 2.7 1.2 6zm-4.8 0q0-2.6-0.8-4.7-0.8-2.1-2.2-3.5-1.4-1.5-3.5-2.3-2-0.7-4.5-0.7-2.5 0-4.5 0.7-2 0.8-3.5 2.3-1.4 1.4-2.2 3.5-0.7 2.1-0.7 4.7 0 2.6 0.7 4.7 0.8 2.1 2.2 3.5 1.5 1.5 3.5 2.3 2 0.7 4.5 0.7 2.5 0 4.5-0.7 2.1-0.8 3.5-2.3 1.4-1.4 2.2-3.5 0.8-2.1 0.8-4.7z"/>
	<path class="s3" d="m303.2 161h-10.1v25.7h-4.7v-25.7h-10.1v-3.7h24.9z"/>
	<path class="s3" d="m358.7 183.1v3.6h-19.7v-29.4h19.7v3.6h-15v9.3h12v3.4h-12v9.5z"/>
	<path class="s3" d="m413.9 183v3.7h-18.1v-29.4h4.7v25.7z"/>
	<path class="s3" d="m466.2 162.1q-0.2 0.4-0.5 0.5-0.2 0.2-0.6 0.2-0.4 0-0.9-0.3-0.5-0.4-1.3-0.8-0.7-0.4-1.8-0.8-1.1-0.3-2.5-0.3-1.4 0-2.5 0.3-1 0.4-1.7 1-0.7 0.5-1.1 1.3-0.4 0.8-0.4 1.7 0 1.2 0.7 2 0.6 0.8 1.7 1.3 1 0.6 2.4 1 1.3 0.4 2.8 0.8 1.4 0.5 2.7 1 1.4 0.6 2.4 1.5 1.1 0.8 1.7 2.1 0.7 1.3 0.7 3.1 0 1.9-0.7 3.6-0.7 1.7-2.1 3-1.4 1.2-3.4 2-2 0.7-4.5 0.7-1.5 0-3-0.3-1.4-0.3-2.7-0.7-1.3-0.6-2.4-1.2-1.1-0.8-2-1.6l1.3-2.1q0.2-0.3 0.5-0.4 0.3-0.2 0.6-0.2 0.5 0 1.1 0.5 0.6 0.4 1.5 1 0.9 0.5 2.2 0.9 1.2 0.5 3 0.5 1.5 0 2.6-0.4 1.2-0.3 1.9-1 0.8-0.7 1.3-1.6 0.4-0.9 0.4-2.1 0-1.3-0.7-2.1-0.6-0.8-1.7-1.4-1-0.5-2.4-0.9-1.3-0.4-2.7-0.8-1.5-0.4-2.8-1-1.4-0.5-2.4-1.4-1.1-0.9-1.7-2.2-0.7-1.4-0.7-3.3 0-1.6 0.7-3.1 0.7-1.5 1.9-2.6 1.3-1.1 3.2-1.8 1.8-0.7 4.2-0.7 2.7 0 4.9 0.8 2.3 0.8 3.9 2.2z"/>
</svg>